<?xml version="1.0" encoding="utf-8"?>
<!-- Generator: Adobe Illustrator 17.0.0, SVG Export Plug-In . SVG Version: 6.00 Build 0)  -->
<!DOCTYPE svg PUBLIC "-//W3C//DTD SVG 1.1//EN" "http://www.w3.org/Graphics/SVG/1.1/DTD/svg11.dtd">
<svg version="1.1" id="图层_1" xmlns="http://www.w3.org/2000/svg" xmlns:xlink="http://www.w3.org/1999/xlink" x="0px" y="0px"
	 width="24px" height="24px" viewBox="0 0 24 24" enable-background="new 0 0 24 24" xml:space="preserve">
<path fill="none" d="M24,0H0v24h24V0z M24,0H0v24h24V0z M0,24h24V0H0V24z"/>
<polygon fill-rule="evenodd" clip-rule="evenodd" fill="#FFFFFF" points="18.611,15.744 13.554,15.744 13.554,21.878 10.44,21.878 
	10.44,15.744 5.383,15.744 5.383,18.761 6.356,18.761 6.356,16.717 9.47,16.717 9.47,18.761 9.47,21.875 6.356,21.875 5.383,21.875 
	2.269,21.875 2.269,18.761 2.269,15.744 2.269,12.63 5.383,12.63 10.44,12.63 10.44,11.664 5.383,11.664 2.269,11.664 2.269,8.55 
	2.269,5.534 2.269,2.42 5.383,2.42 6.356,2.42 9.47,2.42 9.47,5.534 9.47,7.577 6.356,7.577 6.356,5.534 5.383,5.534 5.383,8.55 
	10.44,8.55 10.44,2.416 13.554,2.416 13.554,8.55 18.611,8.55 18.611,5.534 17.638,5.534 17.638,7.577 14.524,7.577 14.524,5.534 
	14.524,2.42 17.638,2.42 18.611,2.42 21.725,2.42 21.725,5.534 21.725,8.55 21.731,8.55 21.731,11.664 21.725,11.664 18.611,11.664 
	13.554,11.664 13.554,12.63 18.611,12.63 21.724,12.63 21.725,12.63 21.725,18.761 21.725,21.875 18.611,21.875 17.638,21.875 
	14.524,21.875 14.524,18.761 14.524,16.717 17.638,16.717 17.638,18.761 18.611,18.761 "/>
</svg>
