<?xml version="1.0" encoding="utf-8"?>
<!-- Generator: Adobe Illustrator 17.0.0, SVG Export Plug-In . SVG Version: 6.00 Build 0)  -->
<!DOCTYPE svg PUBLIC "-//W3C//DTD SVG 1.1//EN" "http://www.w3.org/Graphics/SVG/1.1/DTD/svg11.dtd">
<svg version="1.1" id="Layer_1" xmlns="http://www.w3.org/2000/svg" xmlns:xlink="http://www.w3.org/1999/xlink" x="0px" y="0px"
	 width="246px" height="61px" viewBox="0 0 246 61" enable-background="new 0 0 246 61" xml:space="preserve">
<polygon fill-rule="evenodd" clip-rule="evenodd" fill="#FFFFFF" points="57.916,39.133 45.768,39.133 45.768,53.867 38.288,53.867 
	38.288,39.133 26.14,39.133 26.14,46.379 28.478,46.379 28.478,41.47 35.958,41.47 35.958,46.379 35.958,53.859 28.478,53.859 
	26.14,53.859 18.66,53.859 18.66,46.379 18.66,39.133 18.66,31.653 26.14,31.653 38.288,31.653 38.288,29.332 26.14,29.332 
	18.66,29.332 18.66,21.852 18.66,14.606 18.66,7.126 26.14,7.126 28.478,7.126 35.958,7.126 35.958,14.606 35.958,19.515 
	28.478,19.515 28.478,14.606 26.14,14.606 26.14,21.852 38.288,21.852 38.288,7.117 45.768,7.117 45.768,21.852 57.916,21.852 
	57.916,14.606 55.579,14.606 55.579,19.515 48.099,19.515 48.099,14.606 48.099,7.126 55.579,7.126 57.916,7.126 65.396,7.126 
	65.396,14.606 65.396,21.852 65.41,21.852 65.41,29.332 65.396,29.332 57.916,29.332 45.768,29.332 45.768,31.653 57.916,31.653 
	65.393,31.653 65.396,31.653 65.396,46.379 65.396,53.859 57.916,53.859 55.579,53.859 48.099,53.859 48.099,46.379 48.099,41.47 
	55.579,41.47 55.579,46.379 57.916,46.379 "/>
<path fill="#FFFFFF" d="M70.215,19.475h8.126c1.83,0,3.225,0.138,4.189,0.42c1.292,0.379,2.399,1.056,3.317,2.03
	c0.923,0.969,1.625,2.158,2.107,3.563c0.477,1.41,0.718,3.143,0.718,5.209c0,1.81-0.226,3.373-0.677,4.686
	c-0.549,1.6-1.333,2.897-2.358,3.886c-0.769,0.754-1.81,1.338-3.122,1.759c-0.979,0.313-2.292,0.467-3.937,0.467h-8.362V19.475
	L70.215,19.475z M74.659,23.202v14.581h3.317c1.241,0,2.138-0.067,2.692-0.21c0.718-0.179,1.318-0.482,1.794-0.913
	c0.477-0.431,0.861-1.143,1.164-2.128c0.297-0.984,0.451-2.333,0.451-4.035s-0.154-3.004-0.451-3.917
	c-0.303-0.913-0.723-1.625-1.261-2.133c-0.543-0.513-1.23-0.856-2.061-1.036c-0.62-0.144-1.835-0.21-3.65-0.21H74.659L74.659,23.202
	z M93.026,34.332l4.327-0.426c0.256,1.456,0.784,2.522,1.584,3.204c0.795,0.677,1.866,1.02,3.22,1.02
	c1.43,0,2.512-0.303,3.235-0.912c0.728-0.605,1.092-1.313,1.092-2.123c0-0.523-0.154-0.964-0.461-1.328
	c-0.302-0.369-0.836-0.687-1.599-0.954c-0.518-0.185-1.707-0.502-3.558-0.964c-2.384-0.59-4.055-1.318-5.014-2.179
	c-1.353-1.21-2.03-2.686-2.03-4.43c0-1.123,0.318-2.169,0.954-3.148c0.636-0.974,1.553-1.718,2.748-2.23
	c1.2-0.508,2.64-0.764,4.332-0.764c2.768,0,4.845,0.605,6.244,1.815c1.395,1.215,2.128,2.83,2.199,4.855l-4.445,0.195
	c-0.19-1.133-0.6-1.948-1.225-2.44c-0.625-0.497-1.564-0.743-2.815-0.743c-1.292,0-2.307,0.262-3.035,0.795
	c-0.472,0.338-0.707,0.795-0.707,1.364c0,0.523,0.22,0.969,0.661,1.338c0.559,0.472,1.923,0.964,4.086,1.471
	c2.164,0.513,3.763,1.041,4.799,1.584c1.035,0.549,1.846,1.292,2.435,2.24c0.584,0.948,0.877,2.117,0.877,3.507
	c0,1.261-0.349,2.445-1.051,3.543c-0.702,1.102-1.692,1.922-2.973,2.456c-1.282,0.538-2.881,0.805-4.794,0.805
	c-2.784,0-4.922-0.641-6.414-1.928C94.205,38.669,93.313,36.793,93.026,34.332L93.026,34.332z M116.381,41.494v-22.02h7.131
	c2.702,0,4.465,0.113,5.286,0.333c1.261,0.328,2.322,1.046,3.174,2.153c0.851,1.107,1.277,2.538,1.277,4.286
	c0,1.353-0.246,2.492-0.738,3.409c-0.492,0.923-1.112,1.646-1.871,2.174c-0.754,0.523-1.523,0.872-2.302,1.041
	c-1.061,0.21-2.599,0.318-4.614,0.318h-2.897v8.305H116.381L116.381,41.494z M120.825,23.202v6.244h2.43
	c1.753,0,2.927-0.113,3.517-0.344c0.59-0.231,1.051-0.589,1.389-1.082c0.333-0.492,0.502-1.061,0.502-1.712
	c0-0.8-0.236-1.461-0.707-1.984c-0.466-0.518-1.066-0.846-1.784-0.974c-0.533-0.103-1.6-0.149-3.199-0.149H120.825L120.825,23.202z
	 M138.618,41.494v-22.02h9.361c2.353,0,4.061,0.2,5.127,0.595c1.066,0.395,1.923,1.097,2.563,2.107
	c0.641,1.015,0.959,2.169,0.959,3.471c0,1.651-0.487,3.02-1.456,4.096c-0.969,1.071-2.425,1.753-4.358,2.03
	c0.964,0.564,1.758,1.179,2.384,1.851c0.625,0.672,1.466,1.861,2.527,3.573l2.692,4.296h-5.316l-3.215-4.794
	c-1.143-1.712-1.923-2.789-2.343-3.235c-0.42-0.446-0.866-0.748-1.338-0.918c-0.472-0.164-1.215-0.246-2.24-0.246h-0.897v9.192
	H138.618L138.618,41.494z M143.068,28.785h3.286c2.133,0,3.466-0.087,3.999-0.267c0.528-0.179,0.943-0.492,1.246-0.933
	c0.297-0.441,0.451-0.989,0.451-1.651c0-0.743-0.2-1.338-0.595-1.794c-0.395-0.456-0.954-0.743-1.676-0.866
	c-0.359-0.046-1.441-0.072-3.245-0.072h-3.466V28.785L143.068,28.785z M162.531,41.494v-22.02h16.324v3.727h-11.879v4.881h11.053
	v3.707h-11.053v5.993h12.299v3.712H162.531L162.531,41.494z M204.614,41.494h-4.84l-1.923-5.004h-8.803l-1.815,5.004h-4.717
	l8.577-22.02h4.701L204.614,41.494L204.614,41.494z M196.426,32.784l-3.035-8.172l-2.973,8.172H196.426L196.426,32.784z
	 M208.666,19.475h8.126c1.83,0,3.225,0.138,4.189,0.42c1.292,0.379,2.399,1.056,3.317,2.03c0.923,0.969,1.625,2.158,2.107,3.563
	c0.477,1.41,0.718,3.143,0.718,5.209c0,1.81-0.226,3.373-0.677,4.686c-0.549,1.6-1.333,2.897-2.358,3.886
	c-0.769,0.754-1.81,1.338-3.122,1.759c-0.979,0.313-2.292,0.467-3.937,0.467h-8.362V19.475L208.666,19.475z M213.111,23.202v14.581
	h3.317c1.241,0,2.138-0.067,2.692-0.21c0.718-0.179,1.318-0.482,1.794-0.913c0.477-0.431,0.861-1.143,1.164-2.128
	c0.297-0.984,0.451-2.333,0.451-4.035s-0.154-3.004-0.451-3.917c-0.302-0.913-0.723-1.625-1.261-2.133
	c-0.543-0.513-1.23-0.856-2.061-1.036c-0.62-0.144-1.835-0.21-3.65-0.21H213.111z"/>
</svg>
